#!OML:ASF H:\Dans Jumps\Project 1\Capture day 1\Session 1\subject.ASF
:FULLY-SPECIFIED
:DEGREES
368
root 0.655387 17.5427 6.83732 8.82089 -0.949068 -2.58284
lowerback -1.99053 -0.167915 -0.257628
upperback 1.15026 -0.247392 1.4394
thorax 2.30317 -0.139307 1.6118
lowerneck -12.621 -0.368368 -1.65586
upperneck 28.7997 -0.809162 2.29649
head 11.4593 -0.26612 1.02212
rclavicle -8.51979e-015 1.12313e-014
rhumerus -39.7206 -28.6258 -68.3053
rradius 17.1741
rwrist 59.0004
rhand -23.1337 -27.2289
rfingers 7.12502
rthumb 3.31399 -57.1829
lclavicle -8.51979e-015 1.12313e-014
lhumerus -34.5589 0.284214 87.1868
lradius 15.581
lwrist -1.17992
lhand -22.9832 -3.46108
lfingers 7.12502
lthumb 3.45931 26.4906
rfemur -15.6973 -0.787163 20.6516
rtibia 25.6038
rfoot -16.3139 -1.81438
rtoes 13.1324
lfemur -16.3616 9.91904 -18.0834
ltibia 26.53
lfoot -14.4601 5.88977
ltoes -3.36975
369
root 0.651596 17.544 6.85545 8.88398 -0.932535 -2.56805
lowerback -2.09002 -0.156127 -0.258951
upperback 1.17888 -0.23247 1.43941
thorax 2.38811 -0.132387 1.61305
lowerneck -12.5769 -0.369548 -1.71001
upperneck 28.6455 -0.805698 2.3344
head 11.391 -0.265878 1.04437
rclavicle -1.35267e-014 1.6524e-014
rhumerus -40.0766 -27.888 -68.6586
rradius 17.391
rwrist 57.9916
rhand -23.0688 -27.2812
rfingers 7.12502
rthumb 3.3767 -57.2342
lclavicle -1.35267e-014 1.6524e-014
lhumerus -35.0366 -0.955927 87.9957
lradius 16.2254
lwrist 0.132914
lhand -22.9545 -3.41829
lfingers 7.12502
lthumb 3.48702 26.5329
rfemur -15.6293 -0.796525 20.6491
rtibia 25.4854
rfoot -16.3368 -1.80725
rtoes 13.2082
lfemur -16.3144 9.91857 -18.083
ltibia 26.4375
lfoot -14.484 5.86067
ltoes -3.35849
370
root 0.647876 17.5446 6.87243 8.93792 -0.91641 -2.5577
lowerback -2.18199 -0.145023 -0.252411
upperback 1.20911 -0.218701 1.43996
thorax 2.47051 -0.125917 1.61046
lowerneck -12.5471 -0.367106 -1.75953
upperneck 28.5194 -0.797261 2.36793
head 11.3364 -0.263319 1.06511
rclavicle 3.62782e-015 -4.24902e-015
rhumerus -40.4069 -27.2775 -68.9624
rradius 17.5756
rwrist 57.0945
rhand -23.0092 -27.3223
rfingers 7.12502
rthumb 3.43424 -57.2744
lclavicle 3.62782e-015 -4.24902e-015
lhumerus -35.4833 -2.04824 88.7354
lradius 16.8386
lwrist 1.33541
lhand -23.0127 -3.46498
lfingers 7.12502
lthumb 3.43082 26.4872
rfemur -15.5607 -0.811576 20.6513
rtibia 25.3775
rfoot -16.3617 -1.79604
rtoes 13.2346
lfemur -16.2604 9.91438 -18.0777
ltibia 26.3446
lfoot -14.5138 5.84552
ltoes -3.35005
371
root 0.644234 17.5445 6.88839 8.97444 -0.90156 -2.5525
lowerback -2.25617 -0.134775 -0.237954
upperback 1.24051 -0.206307 1.44194
thorax 2.54414 -0.119973 1.6049
lowerneck -12.5264 -0.361676 -1.80637
upperneck 28.4238 -0.784308 2.39677
head 11.2954 -0.258932 1.08454
rclavicle -1.72073e-015 7.8023e-015
rhumerus -40.7165 -26.7924 -69.2086
rradius 17.7278
rwrist 56.3334
rhand -22.9534 -27.3521
rfingers 7.12502
rthumb 3.48808 -57.3033
lclavicle -1.72073e-015 7.8023e-015
lhumerus -35.8975 -2.99246 89.403
lradius 17.4112
lwrist 2.41029
lhand -23.09 -3.53085
lfingers 7.12502
lthumb 3.35618 26.4225
rfemur -15.4825 -0.833745 20.6581
rtibia 25.2806
rfoot -16.3918 -1.77455
rtoes 13.2365
lfemur -16.1888 9.90397 -18.0656
ltibia 26.2486
lfoot -14.5455 5.84945
ltoes -3.34909
372
root 0.640666 17.5439 6.90326 8.9962 -0.891379 -2.54988
lowerback -2.31357 -0.124405 -0.219802
upperback 1.27086 -0.193826 1.44499
thorax 2.60725 -0.11387 1.59841
lowerneck -12.5185 -0.353125 -1.84415
upperneck 28.3679 -0.766847 2.41574
head 11.2721 -0.252654 1.09977
rclavicle -6.94504e-015 6.06293e-015
rhumerus -41.0078 -26.43 -69.3918
rradius 17.8458
rwrist 55.7248
rhand -22.8996 -27.3774
rfingers 7.12502
rthumb 3.54003 -57.3278
lclavicle -6.94504e-015 6.06293e-015
lhumerus -36.2752 -3.78941 89.9953
lradius 17.9349
lwrist 3.34021
lhand -23.1672 -3.57639
lfingers 7.12502
lthumb 3.28168 26.3781
rfemur -15.3995 -0.863711 20.666
rtibia 25.1956
rfoot -16.4256 -1.73699
rtoes 13.2161
lfemur -16.1016 9.88541 -18.0503
ltibia 26.1475
lfoot -14.5747 5.87557
ltoes -3.35342
373
root 0.63731 17.5431 6.91736 9.00089 -0.883463 -2.54353
lowerback -2.35742 -0.11429 -0.202354
upperback 1.30307 -0.181619 1.44729
thorax 2.66469 -0.10788 1.59158
lowerneck -12.5189 -0.343508 -1.87401
upperneck 28.3467 -0.747706 2.42559
head 11.2636 -0.245831 1.11088
rclavicle 9.75287e-016 9.61621e-015
rhumerus -41.275 -26.1785 -69.518
rradius 17.9337
rwrist 55.255
rhand -22.847 -27.3984
rfingers 7.12502
rthumb 3.59084 -57.3479
lclavicle 9.75287e-016 9.61621e-015
lhumerus -36.6047 -4.44569 90.5125
lradius 18.4015
lwrist 4.12255
lhand -23.3848 -3.78798
lfingers 7.12502
lthumb 3.07152 26.1696
rfemur -15.3076 -0.915539 20.6677
rtibia 25.122
rfoot -16.466 -1.66877
rtoes 13.2221
lfemur -15.9945 9.85784 -18.0389
ltibia 26.0407
lfoot -14.5981 5.92323
ltoes -3.37735
374
root 0.633991 17.5424 6.9305 8.99487 -0.882103 -2.52512
lowerback -2.38858 -0.104148 -0.198638
upperback 1.33268 -0.168763 1.44794
thorax 2.71233 -0.101737 1.59081
lowerneck -12.5244 -0.333265 -1.90458
upperneck 28.3612 -0.727464 2.43333
head 11.2699 -0.238824 1.12186
rclavicle -4.50372e-015 7.95139e-015
rhumerus -41.5184 -26.0337 -69.5834
rradius 17.9939
rwrist 54.9268
rhand -22.7929 -27.4073
rfingers 7.12502
rthumb 3.6431 -57.3559
lclavicle -4.50372e-015 7.95139e-015
lhumerus -36.8848 -4.97008 90.9588
lradius 18.807
lwrist 4.77788
lhand -23.5664 -3.94582
lfingers 7.12502
lthumb 2.89607 26.0143
rfemur -15.2152 -0.982669 20.6538
rtibia 25.0591
rfoot -16.5105 -1.57033
rtoes 13.2899
lfemur -15.876 9.81945 -18.0414
ltibia 25.9295
lfoot -14.612 5.9914
ltoes -3.41061
